# This file uses centimeters as units for non-parametric coordinates.

mtllib woodblock1.mtl
g default
v -248.901764 -23.901760 71.250374
v -246.250381 -25.000000 71.250374
v -246.250381 -23.901760 73.901756
v -246.250381 -21.250376 75.000000
v -248.901764 -21.250376 73.901756
v -250.000000 -21.250376 71.250374
v 248.901764 -23.901760 71.250374
v 250.000000 -21.250376 71.250374
v 248.901764 -21.250376 73.901756
v 246.250381 -21.250376 75.000000
v 246.250381 -23.901760 73.901756
v 246.250381 -25.000000 71.250374
v -248.901764 23.901760 71.250374
v -250.000000 21.250376 71.250374
v -248.901764 21.250376 73.901756
v -246.250381 21.250376 75.000000
v -246.250381 23.901760 73.901756
v -246.250381 25.000000 71.250374
v 248.901764 23.901760 71.250374
v 246.250381 25.000000 71.250374
v 246.250381 23.901760 73.901756
v 246.250381 21.250376 75.000000
v 248.901764 21.250376 73.901756
v 250.000000 21.250376 71.250374
v -248.901764 21.250376 -73.901756
v -250.000000 21.250376 -71.250374
v -248.901764 23.901760 -71.250374
v -246.250381 25.000000 -71.250374
v -246.250381 23.901760 -73.901756
v -246.250381 21.250376 -75.000000
v 248.901764 21.250376 -73.901756
v 246.250381 21.250376 -75.000000
v 246.250381 23.901760 -73.901756
v 246.250381 25.000000 -71.250374
v 248.901764 23.901760 -71.250374
v 250.000000 21.250376 -71.250374
v -248.901764 -23.901760 -71.250374
v -250.000000 -21.250376 -71.250374
v -248.901764 -21.250376 -73.901756
v -246.250381 -21.250376 -75.000000
v -246.250381 -23.901760 -73.901756
v -246.250381 -25.000000 -71.250374
v 248.901764 -23.901760 -71.250374
v 246.250381 -25.000000 -71.250374
v 246.250381 -23.901760 -73.901756
v 246.250381 -21.250376 -75.000000
v 248.901764 -21.250376 -73.901756
v 250.000000 -21.250376 -71.250374
v -248.414474 -23.414467 73.414467
v 248.414474 -23.414467 73.414467
v -248.414474 23.414467 73.414467
v 248.414474 23.414467 73.414467
v -248.414474 23.414467 -73.414467
v 248.414474 23.414467 -73.414467
v -248.414474 -23.414467 -73.414467
v 248.414474 -23.414467 -73.414467
vt 0.809284 0.007297
vt 0.814589 0.007297
vt 0.814589 0.292416
vt 0.809284 0.292416
vt 0.814589 0.001992
vt 0.810259 0.002967
vt 0.899625 0.007297
vt 0.899625 0.292416
vt 0.814589 0.297721
vt 0.810259 0.296746
vt 0.899625 0.001992
vt 0.904930 0.007297
vt 0.904930 0.292416
vt 0.899625 0.297721
vt 0.903955 0.002967
vt 0.903955 0.296746
vt 0.814275 0.591802
vt 0.808970 0.591802
vt 0.808970 0.306683
vt 0.814275 0.306683
vt 0.814275 0.597107
vt 0.809945 0.596132
vt 0.814275 0.301378
vt 0.809945 0.302353
vt 0.899311 0.306683
vt 0.899311 0.591802
vt 0.899311 0.597107
vt 0.899311 0.301378
vt 0.904616 0.591802
vt 0.904616 0.306683
vt 0.903641 0.596132
vt 0.903641 0.302353
vt 0.292249 0.992703
vt 0.292249 0.998008
vt 0.007130 0.998008
vt 0.007130 0.992703
vt 0.297554 0.992703
vt 0.296579 0.997033
vt 0.001825 0.992703
vt 0.002800 0.997033
vt 0.007130 0.007297
vt 0.292249 0.007297
vt 0.297554 0.007297
vt 0.001825 0.007297
vt 0.292249 0.001992
vt 0.007130 0.001992
vt 0.296579 0.002967
vt 0.002800 0.002967
vt 0.410949 0.998008
vt 0.410949 0.992703
vt 0.696067 0.992703
vt 0.696067 0.998008
vt 0.405644 0.992703
vt 0.406619 0.997033
vt 0.410949 0.007297
vt 0.696067 0.007297
vt 0.701372 0.992703
vt 0.700397 0.997033
vt 0.405644 0.007297
vt 0.410949 0.001992
vt 0.696067 0.001992
vt 0.701372 0.007297
vt 0.406619 0.002967
vt 0.700397 0.002967
vt 0.309146 0.992703
vt 0.303841 0.992703
vt 0.303841 0.007297
vt 0.309146 0.007297
vt 0.309146 0.998008
vt 0.304816 0.997033
vt 0.309146 0.001992
vt 0.304816 0.002967
vt 0.394182 0.007297
vt 0.394182 0.992703
vt 0.394182 0.998008
vt 0.394182 0.001992
vt 0.399487 0.992703
vt 0.399487 0.007297
vt 0.398512 0.997033
vt 0.398512 0.002967
vt 0.712786 0.998008
vt 0.712786 0.992703
vt 0.797822 0.992703
vt 0.797822 0.998008
vt 0.707481 0.992703
vt 0.708456 0.997033
vt 0.712786 0.007297
vt 0.797822 0.007297
vt 0.803127 0.992703
vt 0.802152 0.997033
vt 0.707481 0.007297
vt 0.712786 0.001992
vt 0.797822 0.001992
vt 0.803127 0.007297
vt 0.708456 0.002967
vt 0.802152 0.002967
vn -0.002204 -0.999969 0.007552
vn -0.382156 -0.924086 0.004694
vn -0.382156 -0.924086 -0.004694
vn -0.002204 -0.999969 -0.007552
vn -0.924086 -0.382156 0.004694
vn -0.999680 -0.024169 0.007412
vn -0.999680 -0.024169 -0.007412
vn -0.924086 -0.382156 -0.004694
vn -0.002173 -0.024273 0.999703
vn -0.001371 -0.382531 0.923941
vn 0.001371 -0.382531 0.923941
vn 0.002173 -0.024273 0.999703
vn -0.001371 -0.923942 0.382531
vn 0.002204 -0.999969 0.007552
vn 0.001371 -0.923942 0.382531
vn -0.924476 -0.015248 0.380936
vn -0.924476 0.015248 0.380936
vn -0.999680 0.024169 0.007412
vn -0.380939 -0.015248 0.924474
vn -0.002173 0.024273 0.999703
vn -0.380939 0.015248 0.924474
vn 0.999680 -0.024169 0.007412
vn 0.924086 -0.382156 0.004694
vn 0.924086 -0.382156 -0.004694
vn 0.999680 -0.024169 -0.007412
vn 0.382156 -0.924086 0.004694
vn 0.002204 -0.999969 -0.007552
vn 0.382156 -0.924086 -0.004694
vn 0.380939 -0.015248 0.924474
vn 0.380939 0.015248 0.924474
vn 0.002173 0.024273 0.999703
vn 0.924476 -0.015248 0.380936
vn 0.999680 0.024169 0.007412
vn 0.924476 0.015248 0.380936
vn -0.924086 0.382156 0.004694
vn -0.924086 0.382156 -0.004694
vn -0.999680 0.024169 -0.007412
vn -0.382156 0.924086 0.004694
vn -0.002204 0.999969 0.007552
vn -0.002204 0.999969 -0.007552
vn -0.382156 0.924086 -0.004694
vn -0.001371 0.923942 0.382531
vn 0.001371 0.923942 0.382531
vn 0.002204 0.999969 0.007552
vn -0.001371 0.382531 0.923941
vn 0.001371 0.382531 0.923941
vn 0.382156 0.924086 0.004694
vn 0.382156 0.924086 -0.004694
vn 0.002204 0.999969 -0.007552
vn 0.924086 0.382156 0.004694
vn 0.999680 0.024169 -0.007412
vn 0.924086 0.382156 -0.004694
vn -0.924476 0.015248 -0.380936
vn -0.924476 -0.015248 -0.380936
vn -0.380939 0.015248 -0.924474
vn -0.002173 0.024273 -0.999703
vn -0.002173 -0.024273 -0.999703
vn -0.380939 -0.015248 -0.924474
vn -0.001371 0.382531 -0.923941
vn 0.001371 0.382531 -0.923941
vn 0.002173 0.024273 -0.999703
vn -0.001371 0.923942 -0.382531
vn 0.001371 0.923942 -0.382531
vn 0.380939 0.015248 -0.924474
vn 0.380939 -0.015248 -0.924474
vn 0.002173 -0.024273 -0.999703
vn 0.924476 0.015248 -0.380936
vn 0.924476 -0.015248 -0.380936
vn -0.001371 -0.923942 -0.382531
vn 0.001371 -0.923942 -0.382531
vn -0.001371 -0.382531 -0.923941
vn 0.001371 -0.382531 -0.923941
vn -0.887917 -0.325276 0.325267
vn -0.325272 -0.887917 0.325271
vn -0.325271 -0.325269 0.887918
vn 0.325271 -0.887918 0.325270
vn 0.887917 -0.325278 0.325267
vn 0.325271 -0.325269 0.887918
vn -0.325271 0.887918 0.325270
vn -0.887917 0.325278 0.325267
vn -0.325271 0.325269 0.887918
vn 0.887917 0.325276 0.325267
vn 0.325272 0.887917 0.325271
vn 0.325271 0.325269 0.887918
vn -0.325271 0.325269 -0.887918
vn -0.887917 0.325276 -0.325267
vn -0.325272 0.887917 -0.325271
vn 0.887917 0.325278 -0.325267
vn 0.325271 0.325269 -0.887918
vn 0.325271 0.887918 -0.325270
vn -0.325271 -0.887918 -0.325270
vn -0.887917 -0.325278 -0.325267
vn -0.325271 -0.325269 -0.887918
vn 0.887917 -0.325276 -0.325267
vn 0.325272 -0.887917 -0.325271
vn 0.325271 -0.325269 -0.887918
s 1
g pCube1
usemtl lambert2SG
f 2/33/1 1/34/2 37/35/3 42/36/4
s 2
f 1/1/5 6/2/6 38/3/7 37/4/8
s 3
f 4/65/9 3/66/10 11/67/11 10/68/12
s 1
f 3/37/13 2/33/1 12/42/14 11/43/15
s 2
f 6/2/6 5/5/16 15/11/17 14/7/18
s 3
f 5/69/19 4/65/9 16/74/20 15/75/21
s 4
f 8/17/22 7/18/23 43/19/24 48/20/25
s 1
f 7/45/26 12/42/14 44/41/27 43/46/28
s 3
f 10/68/12 9/71/29 23/76/30 22/73/31
s 4
f 9/21/32 8/17/22 24/26/33 23/27/34
s 2
f 14/7/18 13/12/35 27/13/36 26/8/37
s 5
f 13/49/38 18/50/39 28/51/40 27/52/41
f 18/50/39 17/53/42 21/59/43 20/55/44
s 3
f 17/77/45 16/74/20 22/73/31 21/78/46
s 5
f 20/55/44 19/60/47 35/61/48 34/56/49
s 4
f 19/29/50 24/26/33 36/25/51 35/30/52
s 2
f 26/8/37 25/14/53 39/9/54 38/3/7
s 6
f 25/81/55 30/82/56 40/83/57 39/84/58
f 30/82/56 29/85/59 33/91/60 32/87/61
s 5
f 29/57/62 28/51/40 34/56/49 33/62/63
s 6
f 32/87/61 31/92/64 47/93/65 46/88/66
s 4
f 31/28/67 36/25/51 48/20/25 47/23/68
s 1
f 42/36/4 41/39/69 45/44/70 44/41/27
s 6
f 41/89/71 40/83/57 46/88/66 45/94/72
s 3
f 4/65/9 10/68/12 22/73/31 16/74/20
s 5
f 18/50/39 20/55/44 34/56/49 28/51/40
s 6
f 30/82/56 32/87/61 46/88/66 40/83/57
s 1
f 42/36/4 44/41/27 12/42/14 2/33/1
s 4
f 8/17/22 48/20/25 36/25/51 24/26/33
s 2
f 38/3/7 6/2/6 14/7/18 26/8/37
f 5/5/16 6/2/6 1/1/5 49/6/73
s 1
f 1/34/2 2/33/1 3/37/13 49/38/74
s 3
f 3/66/10 4/65/9 5/69/19 49/70/75
s 1
f 11/43/15 12/42/14 7/45/26 50/47/76
s 4
f 7/18/23 8/17/22 9/21/32 50/22/77
s 3
f 9/71/29 10/68/12 11/67/11 50/72/78
s 5
f 17/53/42 18/50/39 13/49/38 51/54/79
s 2
f 13/12/35 14/7/18 15/11/17 51/15/80
s 3
f 15/75/21 16/74/20 17/77/45 51/79/81
s 4
f 23/27/34 24/26/33 19/29/50 52/31/82
s 5
f 19/60/47 20/55/44 21/59/43 52/63/83
s 3
f 21/78/46 22/73/31 23/76/30 52/80/84
s 6
f 29/85/59 30/82/56 25/81/55 53/86/85
s 2
f 25/14/53 26/8/37 27/13/36 53/16/86
s 5
f 27/52/41 28/51/40 29/57/62 53/58/87
s 4
f 35/30/52 36/25/51 31/28/67 54/32/88
s 6
f 31/92/64 32/87/61 33/91/60 54/95/89
s 5
f 33/62/63 34/56/49 35/61/48 54/64/90
s 1
f 41/39/69 42/36/4 37/35/3 55/40/91
s 2
f 37/4/8 38/3/7 39/9/54 55/10/92
s 6
f 39/84/58 40/83/57 41/89/71 55/90/93
s 4
f 47/23/68 48/20/25 43/19/24 56/24/94
s 1
f 43/46/28 44/41/27 45/44/70 56/48/95
s 6
f 45/94/72 46/88/66 47/93/65 56/96/96
